<svg xmlns="http://www.w3.org/2000/svg" viewBox="0 0 430.87 67.29"><defs><style>.cls-1{fill:#231815;}</style></defs><g id="レイヤー_2" data-name="レイヤー 2"><g id="デザイン"><rect class="cls-1" x="413.31" y="0.54" width="16.59" height="4.43"/><rect class="cls-1" x="413.31" y="21" width="17.56" height="4.43"/><rect class="cls-1" x="413.31" y="10.77" width="13.42" height="4.43"/><rect class="cls-1" x="413.31" y="0.54" width="4.84" height="24.89"/><rect class="cls-1" x="269.2" y="0.54" width="15.76" height="4.43"/><rect class="cls-1" x="269.2" y="10.77" width="12.17" height="4.43"/><rect class="cls-1" x="269.2" y="0.54" width="4.84" height="24.89"/><path class="cls-1" d="M404.74,21.29a12.26,12.26,0,0,1-9.8,4.69c-7.91,0-13-5.81-13-13s5.08-13,13-13a11.81,11.81,0,0,1,8.79,3.59l-3.19,3a7.4,7.4,0,0,0-5.6-2.25c-5.08,0-7.86,3.88-7.86,8.65s3.07,8.61,7.86,8.61a7.51,7.51,0,0,0,5-1.76v-5h4.84Z"/><path class="cls-1" d="M345.59,13c0,7.18-5.08,13-13,13s-13-5.81-13-13,5.09-13,13-13,13,5.82,13,13m-5.11,0c0-4.77-3.09-8.61-7.89-8.61S324.7,8.22,324.7,13s3.1,8.61,7.89,8.61,7.89-3.86,7.89-8.61"/><rect class="cls-1" x="293.81" y="0.54" width="4.71" height="24.89"/><path class="cls-1" d="M311,7.76a7.41,7.41,0,0,1-1.68,5.11,8,8,0,0,1-5.09,2.18v.55h-5.74V11.21h4.37a3.83,3.83,0,0,0,2.32-.87,2.79,2.79,0,0,0,1.13-2.48,3.05,3.05,0,0,0-1.13-2.48,3.83,3.83,0,0,0-2.32-.85h-4.37v-4h5.74a8,8,0,0,1,5.09,2.18A6.67,6.67,0,0,1,311,7.76Z"/><polygon class="cls-1" points="312.33 25.43 306.83 12.65 303.03 15.6 307.28 25.43 312.33 25.43"/><polygon class="cls-1" points="358.58 0.54 353.9 0.54 353.9 16.45 358.58 15.41 358.58 0.54"/><path class="cls-1" d="M353.9,16.45c0,4.12,1.51,6.26,3.2,7.63a10.31,10.31,0,0,0,6.67,1.9V21.7a4.54,4.54,0,0,1-4.1-1.76c-1-1.26-1.09-3.49-1.09-4.53Z"/><polygon class="cls-1" points="368.96 0.54 373.65 0.54 373.65 16.45 368.96 15.41 368.96 0.54"/><path class="cls-1" d="M373.65,16.45c0,4.12-1.53,6.26-3.2,7.63a10.36,10.36,0,0,1-6.68,1.9V21.7a4.53,4.53,0,0,0,4.1-1.76c1-1.26,1.09-3.49,1.09-4.53Z"/><rect class="cls-1" x="67.6" y="0.54" width="4.7" height="24.89"/><polygon class="cls-1" points="34.13 25.43 39.41 25.43 46.44 7.5 53.46 25.43 58.76 25.43 48.17 0.54 44.71 0.54 34.13 25.43"/><rect class="cls-1" x="41.87" y="14.74" width="9.14" height="4.44"/><rect class="cls-1" x="225.67" y="0.54" width="15.22" height="4.43"/><rect class="cls-1" x="225.67" y="21" width="16.18" height="4.43"/><rect class="cls-1" x="225.67" y="10.77" width="12.04" height="4.43"/><rect class="cls-1" x="224.29" y="0.54" width="4.85" height="24.89"/><rect class="cls-1" x="193.11" y="0.54" width="4.84" height="24.89"/><path class="cls-1" d="M210.65,13c0,3.66-1,5.1-2.29,6.23a9.76,9.76,0,0,1-5.87,2h-4.7v4.24h4.58a15.46,15.46,0,0,0,9.2-3c1.86-1.59,3.88-3.61,3.88-9.48s-2-7.89-3.88-9.48a15.53,15.53,0,0,0-9.2-3h-4.58V4.79h4.7a9.63,9.63,0,0,1,5.87,2C209.67,7.89,210.65,9.33,210.65,13Z"/><rect class="cls-1" y="1.04" width="4.51" height="23.9"/><rect class="cls-1" x="20.25" y="1.04" width="4.51" height="23.9"/><polygon class="cls-1" points="12.37 17.24 20.25 6.83 20.25 1.04 18.99 1.04 12.37 9.57 5.78 1.04 4.51 1.04 4.51 6.83 12.37 17.24"/><path class="cls-1" d="M134.2,13c0,7.19-5.09,13-13,13s-13-5.81-13-13,5.08-13,13-13,13,5.82,13,13m-5.12,0c0-4.76-3.07-8.6-7.87-8.6s-7.89,3.84-7.89,8.6,3.08,8.62,7.89,8.62,7.87-3.86,7.87-8.62"/><rect class="cls-1" x="143.59" y="0.54" width="4.71" height="24.89"/><rect class="cls-1" x="160.74" y="0.54" width="4.7" height="24.89"/><polygon class="cls-1" points="148.3 6.62 159.94 25.43 160.74 25.43 160.74 17.44 150.3 0.54 148.3 0.54 148.3 6.62"/><path class="cls-1" d="M96.15,6.88s-2-2.73-4.68-2.73S88.37,6,88.37,6.6s.11,2,3.06,3.36c4.18,1.94,8.06,3.42,8.06,8.77,0,5-4.21,7.25-8,7.25a10.46,10.46,0,0,1-8.92-4.57l2.9-3a7.86,7.86,0,0,0,5.89,3.27c2.86.06,3.55-1.82,3.57-2.72s-.34-2.24-2.85-3.52a37.51,37.51,0,0,1-5.91-3.39,6.56,6.56,0,0,1-2.39-5.41C83.91,3,86.52,0,91.75,0a8.59,8.59,0,0,1,7.43,4.11Z"/><path class="cls-1" d="M17.82,52.87a4.94,4.94,0,0,1,3.74,1.5l2.12-2A7.89,7.89,0,0,0,17.82,50a8.37,8.37,0,0,0-8.67,8.66,8.37,8.37,0,0,0,8.67,8.66,8.13,8.13,0,0,0,5.49-2l-1.83-2.11a6.07,6.07,0,0,1-3.66,1.22c-3.2,0-5.25-2.57-5.25-5.74S14.43,52.87,17.82,52.87Z"/><path class="cls-1" d="M88.27,50a8.36,8.36,0,0,0-8.66,8.66,8.67,8.67,0,0,0,17.34,0A8.37,8.37,0,0,0,88.27,50Zm0,14.4c-3.19,0-5.25-2.57-5.25-5.74s2.06-5.74,5.25-5.74,5.27,2.57,5.27,5.74S91.48,64.37,88.27,64.37Z"/><path class="cls-1" d="M143.15,50a8.36,8.36,0,0,0-8.67,8.66,8.67,8.67,0,0,0,17.33,0A8.36,8.36,0,0,0,143.15,50Zm0,14.4c-3.21,0-5.27-2.57-5.27-5.74s2.06-5.74,5.27-5.74,5.25,2.57,5.25,5.74S146.35,64.37,143.15,64.37Z"/><path class="cls-1" d="M176.71,50A8.36,8.36,0,0,0,168,58.63a8.67,8.67,0,0,0,17.34,0A8.36,8.36,0,0,0,176.71,50Zm0,14.4c-3.2,0-5.25-2.57-5.25-5.74s2-5.74,5.25-5.74S182,55.46,182,58.63,179.91,64.37,176.71,64.37Z"/><rect class="cls-1" y="50.33" width="3.13" height="16.59"/><rect class="cls-1" x="49.7" y="50.33" width="3.13" height="16.59"/><rect class="cls-1" x="216.47" y="50.33" width="3.13" height="16.59"/><polygon class="cls-1" points="246.19 63.98 246.19 60.1 251.91 60.1 251.91 57.15 246.19 57.15 246.19 53.28 254.03 53.28 254.03 50.33 242.96 50.33 242.96 66.93 254.67 66.93 254.67 63.98 246.19 63.98"/><polygon class="cls-1" points="205.08 50.33 200.49 56.26 195.91 50.33 191.89 50.33 191.89 66.93 195.04 66.93 195.04 54.35 200.49 61.58 205.96 54.35 205.96 66.93 209.09 66.93 209.09 50.33 205.08 50.33"/><polygon class="cls-1" points="125.59 61.6 118.63 50.33 114.16 50.33 114.16 66.93 117.29 66.93 117.29 54.38 125.05 66.93 128.73 66.93 128.73 50.33 125.59 50.33 125.59 61.6"/><path class="cls-1" d="M231.93,56.62c-2-.92-2.05-1.82-2.05-2.24s.34-1.64,2.07-1.64a4.45,4.45,0,0,1,3.12,1.82l2-1.85A5.71,5.71,0,0,0,232.15,50c-3.49,0-5.24,2-5.35,4.45A4.45,4.45,0,0,0,228.38,58a28,28,0,0,0,4,2.25c1.66.86,1.9,1.73,1.9,2.34s-.47,1.87-2.38,1.83a5.2,5.2,0,0,1-3.92-2.17l-1.94,2a6.92,6.92,0,0,0,5.94,3.05c2.56,0,5.37-1.48,5.37-4.83C237.31,58.9,234.71,57.91,231.93,56.62Z"/><path class="cls-1" d="M68.06,60.76H71V63.2a5,5,0,0,1-3.3,1.17c-3.2,0-5.26-2.57-5.26-5.74s1.86-5.76,5.26-5.76a4.89,4.89,0,0,1,3.72,1.5l2.13-2A7.9,7.9,0,0,0,67.68,50,8.36,8.36,0,0,0,59,58.63a8.36,8.36,0,0,0,8.67,8.66,8.14,8.14,0,0,0,6.52-3.13V57.81H68.06Z"/><polygon class="cls-1" points="39.35 57.15 32.19 57.15 32.19 50.33 28.96 50.33 28.96 66.93 32.19 66.93 32.19 60.1 39.35 60.1 39.35 66.93 42.58 66.93 42.58 50.33 39.35 50.33 39.35 57.15"/></g></g></svg>